<svg width="28" height="28" viewBox="0 0 28 28" fill="none" xmlns="http://www.w3.org/2000/svg">
<path fill-rule="evenodd" clip-rule="evenodd" d="M3.5 7C3.5 6.72386 3.72386 6.5 4 6.5H24C24.2761 6.5 24.5 6.72386 24.5 7C24.5 7.27614 24.2761 7.5 24 7.5H4C3.72386 7.5 3.5 7.27614 3.5 7ZM3.5 14C3.5 13.7239 3.72386 13.5 4 13.5H24C24.2761 13.5 24.5 13.7239 24.5 14C24.5 14.2761 24.2761 14.5 24 14.5H4C3.72386 14.5 3.5 14.2761 3.5 14ZM3.5 21C3.5 20.7239 3.72386 20.5 4 20.5H24C24.2761 20.5 24.5 20.7239 24.5 21C24.5 21.2761 24.2761 21.5 24 21.5H4C3.72386 21.5 3.5 21.2761 3.5 21Z" fill="black"/>
</svg>
