<svg width="28" height="28" viewBox="0 0 28 28" fill="none" xmlns="http://www.w3.org/2000/svg">
<path fill-rule="evenodd" clip-rule="evenodd" d="M4 5C3.72386 5 3.5 5.22386 3.5 5.5V17.3182C3.5 17.5943 3.72386 17.8182 4 17.8182H5.95893C5.55894 18.2988 5.31836 18.9167 5.31836 19.5908C5.31836 21.1222 6.55975 22.3636 8.09109 22.3636C9.62242 22.3636 10.8638 21.1222 10.8638 19.5908C10.8638 18.9167 10.6232 18.2988 10.2232 17.8182H17.6364L17.6431 17.8181H17.7768C17.3768 18.2987 17.1362 18.9167 17.1362 19.5908C17.1362 21.1222 18.3776 22.3636 19.909 22.3636C21.4403 22.3636 22.6817 21.1222 22.6817 19.5908C22.6817 18.9167 22.4411 18.2987 22.0411 17.8181H23.9999C24.276 17.8181 24.4999 17.5943 24.4999 17.3181V12.7727C24.4999 12.6401 24.4472 12.5129 24.3534 12.4191L21.6261 9.69186C21.5324 9.59809 21.4052 9.54541 21.2726 9.54541H18.1364V5.5C18.1364 5.22386 17.9125 5 17.6364 5H4ZM19.9 17.8181H19.9179C20.8928 17.8229 21.6817 18.6148 21.6817 19.5908C21.6817 20.5699 20.888 21.3636 19.909 21.3636C18.9299 21.3636 18.1362 20.5699 18.1362 19.5908C18.1362 18.6148 18.9251 17.8229 19.9 17.8181ZM19.9201 16.8181H23.4999V12.9798L21.0655 10.5454H18.1364V16.8181H19.8978C19.9015 16.8181 19.9052 16.8181 19.909 16.8181C19.9127 16.8181 19.9164 16.8181 19.9201 16.8181ZM8.09109 16.8181L8.11053 16.8182H17.1362V10.0454L17.1364 10.0337V6H4.5V16.8182H8.07164L8.09109 16.8181ZM6.31836 19.5908C6.31836 18.617 7.10365 17.8265 8.07554 17.8182H8.10663C9.07853 17.8265 9.86381 18.617 9.86381 19.5908C9.86381 20.5699 9.07014 21.3636 8.09109 21.3636C7.11204 21.3636 6.31836 20.5699 6.31836 19.5908Z" fill="black"/>
</svg>
