<svg width="28" height="28" viewBox="0 0 28 28" fill="none" xmlns="http://www.w3.org/2000/svg">
<path d="M14.4762 19.2381V12.5714H13.5238V19.2381H14.4762Z" fill="black"/>
<path d="M14 10.6667C14.526 10.6667 14.9524 10.2403 14.9524 9.71429C14.9524 9.1883 14.526 8.7619 14 8.7619C13.474 8.7619 13.0476 9.1883 13.0476 9.71429C13.0476 10.2403 13.474 10.6667 14 10.6667Z" fill="black"/>
<path fill-rule="evenodd" clip-rule="evenodd" d="M14 24C19.5228 24 24 19.5228 24 14C24 8.47715 19.5228 4 14 4C8.47715 4 4 8.47715 4 14C4 19.5228 8.47715 24 14 24ZM14 23.0476C18.9969 23.0476 23.0476 18.9969 23.0476 14C23.0476 9.00314 18.9969 4.95238 14 4.95238C9.00314 4.95238 4.95238 9.00314 4.95238 14C4.95238 18.9969 9.00314 23.0476 14 23.0476Z" fill="black"/>
</svg>
