<svg width="28" height="28" viewBox="0 0 28 28" fill="none" xmlns="http://www.w3.org/2000/svg">
<path fill-rule="evenodd" clip-rule="evenodd" d="M14 14C16.2091 14 18 12.2091 18 10C18 7.79086 16.2091 6 14 6C11.7909 6 10 7.79086 10 10C10 12.2091 11.7909 14 14 14ZM22.9985 23C22.9321 20.2273 20.6637 18 17.875 18H10.125C7.33633 18 5.06786 20.2273 5.00149 23H22.9985ZM14 15C16.7614 15 19 12.7614 19 10C19 7.23858 16.7614 5 14 5C11.2386 5 9 7.23858 9 10C9 12.7614 11.2386 15 14 15ZM10.125 17C6.74226 17 4 19.7423 4 23.125C4 23.6082 4.39175 24 4.875 24H23.125C23.6082 24 24 23.6082 24 23.125C24 19.7423 21.2577 17 17.875 17H10.125Z" fill="black"/>
</svg>
