<svg width="28" height="28" viewBox="0 0 28 28" fill="none" xmlns="http://www.w3.org/2000/svg">
<path fill-rule="evenodd" clip-rule="evenodd" d="M5 12.3086V22.6987H10V18.2522C10 16.3192 11.567 14.7522 13.5 14.7522C15.433 14.7522 17 16.3192 17 18.2522V22.6987H22L22 12.3144L13.4147 5.29639L5 12.3086ZM4 22.6987V12.3086C4 12.0118 4.13182 11.7304 4.35982 11.5404L12.7745 4.52817C13.1426 4.22141 13.6766 4.21888 14.0476 4.52215L22.6329 11.5401C22.8652 11.7301 23 12.0143 23 12.3144V22.6987C23 23.251 22.5523 23.6987 22 23.6987H17C16.4477 23.6987 16 23.251 16 22.6987V18.2522C16 16.8715 14.8807 15.7522 13.5 15.7522C12.1193 15.7522 11 16.8715 11 18.2522V22.6987C11 23.251 10.5523 23.6987 10 23.6987H5C4.44772 23.6987 4 23.251 4 22.6987Z" fill="black"/>
</svg>
