<svg width="28" height="28" viewBox="0 0 28 28" fill="none" xmlns="http://www.w3.org/2000/svg">
<path fill-rule="evenodd" clip-rule="evenodd" d="M7.5 10C7.5 6.41015 10.4101 3.5 14 3.5C17.5899 3.5 20.5 6.41015 20.5 10C20.5 12.2667 19.3398 14.2624 17.5808 15.4256C17.5375 15.4456 17.4977 15.4714 17.4624 15.5021C16.46 16.1342 15.2727 16.5 14 16.5C10.4101 16.5 7.5 13.5899 7.5 10ZM17.3931 16.6903C16.3742 17.2081 15.2212 17.5 14 17.5C12.7793 17.5 11.6266 17.2083 10.608 16.6909L9.63222 24.0375L13.7428 21.5711C13.9011 21.4761 14.0989 21.4761 14.2572 21.5711L18.3679 24.0376L17.3931 16.6903ZM9.67406 16.1274C7.75374 14.7692 6.5 12.531 6.5 10C6.5 5.85786 9.85786 2.5 14 2.5C18.1421 2.5 21.5 5.85786 21.5 10C21.5 12.5305 20.2468 14.7683 18.3271 16.1266L19.4957 24.9341C19.5209 25.1244 19.435 25.3124 19.2745 25.4178C19.114 25.5232 18.9074 25.5274 18.7428 25.4286L14 22.583L9.25725 25.4286C9.09261 25.5274 8.88595 25.5232 8.72548 25.4178C8.56501 25.3124 8.47907 25.1244 8.50435 24.9341L9.67406 16.1274Z" fill="black"/>
</svg>
