<svg width="28" height="28" viewBox="0 0 28 28" fill="none" xmlns="http://www.w3.org/2000/svg">
<path d="M23.8881 18.9201V21.9201C23.8892 22.1986 23.8322 22.4743 23.7206 22.7294C23.6091 22.9846 23.4454 23.2137 23.2402 23.402C23.035 23.5902 22.7927 23.7336 22.5289 23.8228C22.265 23.912 21.9855 23.9452 21.7081 23.9201C18.631 23.5857 15.6751 22.5342 13.0781 20.8501C10.6619 19.3148 8.61345 17.2663 7.07812 14.8501C5.38809 12.2413 4.33636 9.27109 4.00812 6.1801C3.98313 5.90356 4.01599 5.62486 4.10462 5.36172C4.19324 5.09859 4.33569 4.85679 4.52288 4.65172C4.71008 4.44665 4.93792 4.28281 5.19191 4.17062C5.44589 4.05843 5.72046 4.00036 5.99812 4.0001H8.99812C9.48342 3.99532 9.95391 4.16718 10.3219 4.48363C10.6898 4.80008 10.9302 5.23954 10.9981 5.7201C11.1247 6.68016 11.3596 7.62282 11.6981 8.5301C11.8327 8.88802 11.8618 9.27701 11.782 9.65098C11.7023 10.0249 11.517 10.3682 11.2481 10.6401L9.97812 11.9101C11.4017 14.4136 13.4746 16.4865 15.9781 17.9101L17.2481 16.6401C17.52 16.3712 17.8633 16.1859 18.2372 16.1062C18.6112 16.0264 19.0002 16.0556 19.3581 16.1901C20.2654 16.5286 21.2081 16.7635 22.1681 16.8901C22.6539 16.9586 23.0975 17.2033 23.4146 17.5776C23.7318 17.9519 23.9003 18.4297 23.8881 18.9201Z" stroke="black" stroke-linecap="round" stroke-linejoin="round"/>
</svg>
