<svg width="28" height="28" viewBox="0 0 28 28" fill="none" xmlns="http://www.w3.org/2000/svg">
<path fill-rule="evenodd" clip-rule="evenodd" d="M14 7.58447C13.7348 7.58447 13.4804 7.47911 13.2929 7.29157L12.4513 6.45002C10.518 4.51666 7.38338 4.51666 5.45002 6.45002C3.51666 8.38338 3.51666 11.518 5.45002 13.4513L14 22.0013L22.55 13.4513C24.4833 11.518 24.4833 8.38338 22.55 6.45002C20.6166 4.51666 17.482 4.51666 15.5487 6.45002L14.7071 7.29157C14.5196 7.47911 14.2652 7.58447 14 7.58447ZM14 6.58447L14.8416 5.74291C17.1654 3.41903 20.9332 3.41903 23.2571 5.74291C25.581 8.0668 25.581 11.8346 23.2571 14.1584L14.7071 22.7084C14.3166 23.099 13.6834 23.099 13.2929 22.7084L4.74291 14.1584C2.41903 11.8346 2.41903 8.0668 4.74291 5.74291C7.0668 3.41903 10.8346 3.41903 13.1584 5.74291L14 6.58447Z" fill="black"/>
</svg>
