<svg width="28" height="28" viewBox="0 0 28 28" fill="none" xmlns="http://www.w3.org/2000/svg">
<path fill-rule="evenodd" clip-rule="evenodd" d="M3.5 5C3.5 4.17157 4.17157 3.5 5 3.5H11.1667C11.9951 3.5 12.6667 4.17157 12.6667 5V11.1667C12.6667 11.9951 11.9951 12.6667 11.1667 12.6667H5C4.17157 12.6667 3.5 11.9951 3.5 11.1667V5ZM5 4.5C4.72386 4.5 4.5 4.72386 4.5 5V11.1667C4.5 11.4428 4.72386 11.6667 5 11.6667H11.1667C11.4428 11.6667 11.6667 11.4428 11.6667 11.1667V5C11.6667 4.72386 11.4428 4.5 11.1667 4.5H5ZM14.6667 5C14.6667 4.17157 15.3382 3.5 16.1667 3.5H22.3333C23.1618 3.5 23.8333 4.17157 23.8333 5V11.1667C23.8333 11.9951 23.1618 12.6667 22.3333 12.6667H16.1667C15.3382 12.6667 14.6667 11.9951 14.6667 11.1667V5ZM16.1667 4.5C15.8905 4.5 15.6667 4.72386 15.6667 5V11.1667C15.6667 11.4428 15.8905 11.6667 16.1667 11.6667H22.3333C22.6095 11.6667 22.8333 11.4428 22.8333 11.1667V5C22.8333 4.72386 22.6095 4.5 22.3333 4.5H16.1667ZM3.5 16.1667C3.5 15.3382 4.17157 14.6667 5 14.6667H11.1667C11.9951 14.6667 12.6667 15.3382 12.6667 16.1667V22.3333C12.6667 23.1618 11.9951 23.8333 11.1667 23.8333H5C4.17157 23.8333 3.5 23.1618 3.5 22.3333V16.1667ZM5 15.6667C4.72386 15.6667 4.5 15.8905 4.5 16.1667V22.3333C4.5 22.6095 4.72386 22.8333 5 22.8333H11.1667C11.4428 22.8333 11.6667 22.6095 11.6667 22.3333V16.1667C11.6667 15.8905 11.4428 15.6667 11.1667 15.6667H5ZM14.6667 16.1667C14.6667 15.3382 15.3382 14.6667 16.1667 14.6667H22.3333C23.1618 14.6667 23.8333 15.3382 23.8333 16.1667V22.3333C23.8333 23.1618 23.1618 23.8333 22.3333 23.8333H16.1667C15.3382 23.8333 14.6667 23.1618 14.6667 22.3333V16.1667ZM16.1667 15.6667C15.8905 15.6667 15.6667 15.8905 15.6667 16.1667V22.3333C15.6667 22.6095 15.8905 22.8333 16.1667 22.8333H22.3333C22.6095 22.8333 22.8333 22.6095 22.8333 22.3333V16.1667C22.8333 15.8905 22.6095 15.6667 22.3333 15.6667H16.1667Z" fill="black"/>
</svg>
