<svg width="28" height="28" viewBox="0 0 28 28" fill="none" xmlns="http://www.w3.org/2000/svg">
<path d="M17.8536 10.8536C18.0488 10.6583 18.0488 10.3417 17.8536 10.1464C17.6583 9.95118 17.3417 9.95118 17.1464 10.1464L17.8536 10.8536ZM10.1464 17.1464C9.95118 17.3417 9.95118 17.6583 10.1464 17.8536C10.3417 18.0488 10.6583 18.0488 10.8536 17.8536L10.1464 17.1464ZM17.1464 10.1464L10.1464 17.1464L10.8536 17.8536L17.8536 10.8536L17.1464 10.1464ZM11.5 11C11.5 11.2761 11.2761 11.5 11 11.5V12.5C11.8284 12.5 12.5 11.8284 12.5 11H11.5ZM11 11.5C10.7239 11.5 10.5 11.2761 10.5 11H9.5C9.5 11.8284 10.1716 12.5 11 12.5V11.5ZM10.5 11C10.5 10.7239 10.7239 10.5 11 10.5V9.5C10.1716 9.5 9.5 10.1716 9.5 11H10.5ZM11 10.5C11.2761 10.5 11.5 10.7239 11.5 11H12.5C12.5 10.1716 11.8284 9.5 11 9.5V10.5ZM17.5 17C17.5 17.2761 17.2761 17.5 17 17.5V18.5C17.8284 18.5 18.5 17.8284 18.5 17H17.5ZM17 17.5C16.7239 17.5 16.5 17.2761 16.5 17H15.5C15.5 17.8284 16.1716 18.5 17 18.5V17.5ZM16.5 17C16.5 16.7239 16.7239 16.5 17 16.5V15.5C16.1716 15.5 15.5 16.1716 15.5 17H16.5ZM17 16.5C17.2761 16.5 17.5 16.7239 17.5 17H18.5C18.5 16.1716 17.8284 15.5 17 15.5V16.5ZM23.5 14C23.5 19.2467 19.2467 23.5 14 23.5V24.5C19.799 24.5 24.5 19.799 24.5 14H23.5ZM14 23.5C8.75329 23.5 4.5 19.2467 4.5 14H3.5C3.5 19.799 8.20101 24.5 14 24.5V23.5ZM4.5 14C4.5 8.75329 8.75329 4.5 14 4.5V3.5C8.20101 3.5 3.5 8.20101 3.5 14H4.5ZM14 4.5C19.2467 4.5 23.5 8.75329 23.5 14H24.5C24.5 8.20101 19.799 3.5 14 3.5V4.5Z" fill="black"/>
</svg>
